PathFileType	4	(X/Y/Z)	/Users/visionmauri/Downloads/Videos/OAW05-top_Sports2D/OAW05-top_Sports2D_m_person00.trc
DataRate	CameraRate	NumFrames	NumMarkers	Units	OrigDataRate	OrigDataStartFrame	OrigNumFrames
28.0	28.0	7	22	m	28.0	1496	1995
Frame#	Time	Hip			RHip			RKnee			RAnkle			RBigToe			RSmallToe			RHeel			LHip			LKnee			LAnkle			LBigToe			LSmallToe			LHeel			Neck			Head			Nose			RShoulder			RElbow			RWrist			LShoulder			LElbow			LWrist			
		X1	Y1	Z1	X2	Y2	Z2	X3	Y3	Z3	X4	Y4	Z4	X5	Y5	Z5	X6	Y6	Z6	X7	Y7	Z7	X8	Y8	Z8	X9	Y9	Z9	X10	Y10	Z10	X11	Y11	Z11	X12	Y12	Z12	X13	Y13	Z13	X14	Y14	Z14	X15	Y15	Z15	X16	Y16	Z16	X17	Y17	Z17	X18	Y18	Z18	X19	Y19	Z19	X20	Y20	Z20	X21	Y21	Z21	X22	Y22	Z22
1683	60.13470229907644	3.8549813681074427	-0.406026927126691	0.0301	3.915174626800411	-0.5568151725163162	0.0301	3.280563424644368	-0.7028150731474554	0.129	2.700360731135094	-0.9482699547366573	0.023	2.450075527859113	-0.9665949024519718	0.2179	2.496888723328154	-1.09940121477315	0.1804	2.5529975349416136	-0.9937583992237187	-0.0119	3.8057609025545744	-0.25228088730595527	0.0301	3.204710155744397	-0.4446467405810917	0.129	2.6869199159331867	-0.6864464811368296	0.023	2.6306212506082063	-0.7433183153508595	0.2179	2.553250182105741	-0.6557881331365458	0.1804	2.5729304945575113	-0.7428021005093962	-0.0119	4.805021494989463	-0.1281888946208072	0.0008	5.188275223165104	-0.07401762029808258	0.0655	4.947881706803797	-0.12006557838177044	0.1076	4.7948683234285925	-0.4715757362376781	-0.01275	4.322701000414851	-0.7005552139446165	0.0702	3.8926575656537814	-0.8500506978739142	0.1076	4.602160297714458	0.1460484325373798	-0.01275	4.084938974592647	0.07553952117327709	0.0702	3.652475672502024	0.038866007973397836	0.1076
1684	60.17043295997904	3.888156657338008	-0.3841863036400137	0.0301	3.9450084456291337	-0.5330585435737857	0.0301	3.341253184356332	-0.6737972234961045	0.129	2.7888468393309633	-0.8925444640375123	0.023	2.5524628104357396	-0.910214839691349	0.2179	2.6013751307443345	-1.039110508738784	0.1804	2.6447555193568477	-0.9323104416815238	-0.0119	3.8410524715134433	-0.2310028447266213	0.0301	3.2357620192145196	-0.43136202881074653	0.129	2.69182998064226	-0.6824524039416112	0.023	2.628584261979141	-0.7469275590813959	0.2179	2.551153155786765	-0.657999154144526	0.1804	2.5725547165839027	-0.7379364471829163	-0.0119	4.830305574878437	-0.11027058096355025	0.0008	5.2135538305961395	-0.06513449356648988	0.0655	4.965016338455005	-0.12120009968731929	0.1076	4.816860368586327	-0.45053721107658273	-0.01275	4.354435387070893	-0.6795108521996532	0.0702	3.9268923327845155	-0.8212786158460602	0.1076	4.631929117384561	0.1637445601199792	-0.01275	4.126169261642798	0.0955833647319631	0.0702	3.7098044455207924	0.05066702580188523	0.1076
1685	60.20616362088164	3.920891667376081	-0.3648873909146946	0.0301	3.969083623840388	-0.5156838472939383	0.0301	3.4099123416235595	-0.646730975408676	0.129	2.8630033275323545	-0.8529133189436237	0.023	2.6513638489421303	-0.8617483824545042	0.2179	2.699253943554766	-0.9887098857805577	0.1804	2.7192029427333315	-0.890868604494428	-0.0119	3.866952939128029	-0.21109678419341313	0.0301	3.2736373733832282	-0.418316343420727	0.129	2.7004591777822733	-0.6810540192281317	0.023	2.638833942089831	-0.7471880531005918	0.2179	2.5661035311174114	-0.6573411207251039	0.1804	2.5714132832878662	-0.7333864540558921	-0.0119	4.854596376869898	-0.09125473719960041	0.0008	5.226135287412023	-0.04346133264760915	0.0655	4.965651397986679	-0.11098005975279274	0.1076	4.836622133677504	-0.4303344504919342	-0.01275	4.375701907911216	-0.6593825108859185	0.0702	3.9556221383743986	-0.7956049752495337	0.1076	4.652353862948701	0.1794456671941617	-0.01275	4.1554929949653205	0.11325507050739003	0.0702	3.7593432122540507	0.05731698649115819	0.1076
1686	60.24189428178424	3.947455170909322	-0.34824127792538495	0.0301	3.9891118886549632	-0.504246495494379	0.0301	3.4681121365257943	-0.6230449542807299	0.129	2.930937858927353	-0.8241281937889694	0.023	2.7705309995368643	-0.8265206983177027	0.2179	2.808747681076389	-0.9429947924249213	0.1804	2.797524742599631	-0.8603735391175744	-0.0119	3.88495466955009	-0.19384333744009805	0.0301	3.3007301066359607	-0.40866314273459786	0.129	2.7035428080090544	-0.6813826197858508	0.023	2.6523617929840024	-0.7450628748978187	0.2179	2.5789011250163307	-0.6597099847190265	0.1804	2.5690600701542956	-0.7326637857464002	-0.0119	4.869539677977078	-0.07618352528214159	0.0008	5.228773283541382	-0.020316503294648236	0.0655	4.965621863431888	-0.09433596825671577	0.1076	4.849865082020454	-0.4134729701431008	-0.01275	4.388083063096281	-0.6402321992626651	0.0702	3.9768943116736013	-0.7732465680791628	0.1076	4.664653389284005	0.18853877192635948	-0.01275	4.176080991577335	0.12589571130469712	0.0702	3.7986979279030946	0.059412715314877865	0.1076
1687	60.27762494268684	3.9685197090172935	-0.33510648215147953	0.0301	4.0112373535508405	-0.4947074983901206	0.0301	3.5088343081355364	-0.6059359630543195	0.129	3.005696929302084	-0.793232914043673	0.023	2.907961572416747	-0.7959685997944966	0.2179	2.9350233473278333	-0.8929700481511582	0.1804	2.8936442332445185	-0.8221664887644704	-0.0119	3.903620740264884	-0.17890477130797044	0.0301	3.3169418051267807	-0.4012315736365098	0.129	2.700021078780597	-0.6828897297827337	0.023	2.6684850080998266	-0.7402929130769746	0.2179	2.5830586104183175	-0.6643620948588937	0.1804	2.569878978286548	-0.7335193580013298	-0.0119	4.873159353033191	-0.06820690955952584	0.0008	5.229967032678851	-0.00697245471990796	0.0655	4.981429197615191	-0.07996858735144678	0.1076	4.856962654467355	-0.3999969498199609	-0.01275	4.396741239262042	-0.6237266282059731	0.0702	3.992459597681826	-0.7549846735660073	0.1076	4.671938615428431	0.1917504619184112	-0.01275	4.191059541471386	0.13319892756250848	0.0702	3.831299517373685	0.05860794068043439	0.1076
1688	60.31335560358944	3.9854423682082634	-0.3274804843825073	0.0301	4.033688291059536	-0.4844049311242466	0.0301	3.5455176464137095	-0.5927280595422633	0.129	3.088014790833161	-0.7540869957254466	0.023	3.0450590613928252	-0.754279346538605	0.2179	3.070493220972376	-0.8344907705975783	0.1804	2.9979426561226985	-0.7727338019278516	-0.0119	3.9238378691597884	-0.16924293202314483	0.0301	3.334446151046672	-0.39202575084903246	0.129	2.6983748661944653	-0.6834481475384889	0.023	2.6812882808228813	-0.7359235016876943	0.2179	2.5864743345153944	-0.6685724480243128	0.1804	2.5782189584528967	-0.7315967404225874	-0.0119	4.8729828657321335	-0.06461207777046744	0.0008	5.229265481414729	0.002206894566798954	0.0655	5.001068925939949	-0.06757684363300968	0.1076	4.862968547484133	-0.38888606188439157	-0.01275	4.404467713724219	-0.6116678672475564	0.0702	4.004049819947686	-0.7434629192734068	0.1076	4.677731404125957	0.1926259934053669	-0.01275	4.1974710363277286	0.1355831226842374	0.0702	3.861560133300036	0.05474389091715412	0.1076
1689	60.349086264492044	3.997788497787131	-0.3250858048916521	0.0301	4.048553987164625	-0.47494065940519425	0.0301	3.590962864461554	-0.5777033293473121	0.129	3.1643974338480048	-0.7105884418281675	0.023	3.172853046993756	-0.6943642494535187	0.2179	3.2037798853926724	-0.7706404140199319	0.1804	3.0859978305472686	-0.7238651794899988	-0.0119	3.939925857155458	-0.1668511845668301	0.0301	3.3582459920136327	-0.38267034554262996	0.129	2.7053461470086093	-0.6813241774070753	0.023	2.6847120130880695	-0.7348451690445629	0.2179	2.595585675424201	-0.6721814353605764	0.1804	2.592454252614385	-0.7269173830359859	-0.0119	4.875258207346581	-0.06270700174414211	0.0008	5.226802557940004	0.011866366644883147	0.0655	5.010573760165399	-0.057248086981731824	0.1076	4.869397726298654	-0.3812302696930366	-0.01275	4.4110925165774475	-0.6043765924539498	0.0702	4.011800386168466	-0.7396923776406578	0.1076	4.685553772202778	0.19219850349135933	-0.01275	4.19700504785468	0.134122523031176	0.0702	3.889690755381288	0.047221377093849826	0.1076
